<?xml version="1.0" encoding="UTF-8"?><svg xmlns="http://www.w3.org/2000/svg" xmlns:xlink="http://www.w3.org/1999/xlink" width="200pt" height="200pt" viewBox="0 0 200 200" version="1.1"><defs><linearGradient id="linear0" gradientUnits="userSpaceOnUse" x1="67.19948" y1="87.36153" x2="67.19948" y2="98.29333" gradientTransform="matrix(2.301128,0,0,2.301128,0,0)"><stop offset="0" style="stop-color:rgb(54.117647%,70.588235%,100%);stop-opacity:1;"/><stop offset="1" style="stop-color:rgb(89.411765%,57.254902%,100%);stop-opacity:1;"/></linearGradient><linearGradient id="linear1" gradientUnits="userSpaceOnUse" x1="104.79981" y1="87.36153" x2="104.79981" y2="98.29333" gradientTransform="matrix(2.301128,0,0,2.301128,0,0)"><stop offset="0" style="stop-color:rgb(54.117647%,70.588235%,100%);stop-opacity:1;"/><stop offset="1" style="stop-color:rgb(89.411765%,57.254902%,100%);stop-opacity:1;"/></linearGradient><linearGradient id="linear2" gradientUnits="userSpaceOnUse" x1="85.99965" y1="43.852" x2="85.99965" y2="130.16258" gradientTransform="matrix(1.162791,0,0,1.162791,0,0)"><stop offset="0" style="stop-color:rgb(10.196078%,42.745098%,100%);stop-opacity:1;"/><stop offset="1" style="stop-color:rgb(78.431373%,13.333333%,100%);stop-opacity:1;"/></linearGradient><linearGradient id="linear3" gradientUnits="userSpaceOnUse" x1="85.99965" y1="43.852" x2="85.99965" y2="130.16258" gradientTransform="matrix(1.162791,0,0,1.162791,0,0)"><stop offset="0" style="stop-color:rgb(10.196078%,42.745098%,100%);stop-opacity:1;"/><stop offset="1" style="stop-color:rgb(78.431373%,13.333333%,100%);stop-opacity:1;"/></linearGradient><linearGradient id="linear4" gradientUnits="userSpaceOnUse" x1="85.99965" y1="97.5433" x2="85.99965" y2="106.28439" gradientTransform="matrix(1.162791,0,0,1.162791,0,0)"><stop offset="0" style="stop-color:rgb(54.117647%,70.588235%,100%);stop-opacity:1;"/><stop offset="1" style="stop-color:rgb(89.411765%,57.254902%,100%);stop-opacity:1;"/></linearGradient></defs><g id="surface1100"><path style=" stroke:none;fill-rule:nonzero;fill:rgb(92.54902%,94.117647%,94.509804%);fill-opacity:1;" d="M 100 200 C 44.773438 200 0 155.226562 0 100 C 0 44.773438 44.773438 0 100 0 C 155.226562 0 200 44.773438 200 100 C 200 155.226562 155.226562 200 100 200 Z M 100 200"/><path style=" stroke:none;fill-rule:nonzero;fill:url(#linear0);" d="M 83.890625 108.054688 C 83.890625 111.230469 81.316406 113.808594 78.140625 113.808594 C 74.960938 113.808594 72.386719 111.230469 72.386719 108.054688 C 72.386719 104.878906 74.960938 102.300781 78.140625 102.300781 C 81.316406 102.300781 83.890625 104.878906 83.890625 108.054688 Z M 83.890625 108.054688"/><path style=" stroke:none;fill-rule:nonzero;fill:url(#linear1);" d="M 127.613281 108.054688 C 127.613281 111.230469 125.039062 113.808594 121.859375 113.808594 C 118.683594 113.808594 116.109375 111.230469 116.109375 108.054688 C 116.109375 104.878906 118.683594 102.300781 121.859375 102.300781 C 125.039062 102.300781 127.613281 104.878906 127.613281 108.054688 Z M 127.613281 108.054688"/><path style=" stroke:none;fill-rule:nonzero;fill:url(#linear2);" d="M 126.371094 88.496094 L 73.625 88.496094 C 61.523438 88.496094 51.675781 98.339844 51.675781 110.441406 C 51.675781 122.546875 61.523438 132.394531 73.625 132.394531 L 126.375 132.394531 C 138.480469 132.394531 148.324219 122.546875 148.324219 110.441406 C 148.324219 98.339844 138.476562 88.496094 126.371094 88.496094 Z M 126.371094 127.789062 L 73.625 127.789062 C 64.0625 127.789062 56.277344 120.007812 56.277344 110.441406 C 56.277344 100.878906 64.0625 93.097656 73.625 93.097656 L 126.375 93.097656 C 135.9375 93.097656 143.722656 100.878906 143.722656 110.441406 C 143.722656 120.007812 135.9375 127.789062 126.371094 127.789062 Z M 126.371094 127.789062"/><path style=" stroke:none;fill-rule:nonzero;fill:url(#linear3);" d="M 166.730469 78.050781 L 162.128906 78.050781 L 162.128906 100.265625 C 160.234375 98.320312 157.851562 96.867188 155.132812 96.082031 C 149.222656 76.285156 132.71875 61.007812 111.503906 57.203125 L 111.503906 56.277344 C 111.503906 52.472656 108.40625 49.375 104.601562 49.375 L 95.398438 49.375 C 91.589844 49.375 88.492188 52.472656 88.492188 56.277344 L 88.492188 57.222656 C 67.632812 60.988281 51 76.347656 44.960938 95.996094 C 42.214844 96.757812 39.789062 98.222656 37.871094 100.191406 L 37.871094 78.050781 L 33.265625 78.050781 C 33.265625 78.050781 33.265625 111.148438 33.265625 111.59375 C 33.265625 119.5625 39.117188 126.171875 46.746094 127.390625 C 51.28125 134.820312 59.019531 140.066406 68.046875 141.179688 C 69.140625 146.605469 73.863281 150.625 79.597656 150.625 L 120.398438 150.625 C 126.132812 150.625 130.859375 146.605469 131.949219 141.179688 C 140.972656 140.070312 148.710938 134.824219 153.246094 127.402344 C 160.894531 126.171875 166.726562 119.453125 166.726562 111.417969 C 166.726562 111.027344 166.730469 110.269531 166.730469 110.269531 Z M 93.097656 56.277344 C 93.097656 55.007812 94.128906 53.976562 95.398438 53.976562 L 104.601562 53.976562 C 105.871094 53.976562 106.902344 55.007812 106.902344 56.277344 L 106.902344 65.484375 C 106.902344 69.289062 103.804688 72.386719 100 72.386719 C 96.195312 72.386719 93.097656 69.289062 93.097656 65.484375 Z M 37.867188 111.414062 C 37.867188 107.222656 40.128906 103.566406 43.53125 101.582031 C 42.847656 105.058594 42.472656 108.625 42.472656 112.273438 C 42.472656 115.566406 43.046875 118.722656 44.058594 121.679688 C 40.398438 119.765625 37.867188 115.945312 37.867188 111.414062 Z M 120.402344 146.023438 L 79.597656 146.023438 C 76.523438 146.023438 73.9375 144.125 72.894531 141.421875 L 127.105469 141.421875 C 126.0625 144.125 123.476562 146.023438 120.402344 146.023438 Z M 128.378906 136.816406 L 71.621094 136.816406 C 58.085938 136.816406 47.074219 125.808594 47.074219 112.273438 C 47.074219 87.761719 64.710938 66.597656 88.492188 61.902344 L 88.492188 65.484375 C 88.492188 71.828125 93.65625 76.988281 100 76.988281 C 106.34375 76.988281 111.503906 71.828125 111.503906 65.484375 L 111.503906 61.898438 C 135.597656 66.617188 152.925781 87.507812 152.925781 112.273438 C 152.925781 125.808594 141.914062 136.816406 128.378906 136.816406 Z M 155.921875 121.726562 C 156.945312 118.757812 157.527344 115.582031 157.527344 112.273438 C 157.527344 108.617188 157.160156 105.046875 156.496094 101.582031 C 159.898438 103.59375 162.128906 107.320312 162.128906 111.59375 C 162.128906 115.957031 159.605469 119.808594 155.921875 121.726562 Z M 155.921875 121.726562"/><path style=" stroke:none;fill-rule:nonzero;fill:url(#linear4);" d="M 100 123.011719 C 94.917969 123.011719 90.796875 118.890625 90.796875 113.808594 L 109.203125 113.808594 C 109.203125 118.890625 105.082031 123.011719 100 123.011719 Z M 100 123.011719"/></g></svg>
